<?xml version="1.0" standalone="no"?>
<!DOCTYPE svg PUBLIC "-//W3C//DTD SVG 20010904//EN"
 "http://www.w3.org/TR/2001/REC-SVG-20010904/DTD/svg10.dtd">
<svg version="1.0" xmlns="http://www.w3.org/2000/svg"
 width="260.000000pt" height="260.000000pt" viewBox="0 0 260.000000 260.000000"
 preserveAspectRatio="xMidYMid meet">

<g transform="translate(0.000000,260.000000) scale(0.100000,-0.100000)"
fill="#000000" stroke="none">
<path d="M0 1300 l0 -1300 1300 0 1300 0 0 1300 0 1300 -1300 0 -1300 0 0
-1300z m1880 1105 c0 -8 -103 -222 -230 -475 -126 -254 -230 -465 -230 -470 0
-6 87 -10 223 -10 230 0 267 -4 267 -25 0 -7 -71 -86 -158 -176 -87 -90 -351
-364 -586 -609 -235 -245 -433 -449 -441 -455 -10 -6 -18 -6 -25 1 -7 7 63
166 230 522 132 281 240 514 240 516 0 3 -107 7 -237 8 -197 3 -237 5 -241 18
-6 16 1152 1170 1174 1170 8 0 14 -7 14 -15z m-473 -105 c45 -5 101 -14 124
-20 l42 -12 -71 -71 -71 -71 -128 -2 c-142 -2 -242 -23 -350 -73 -188 -89
-349 -260 -422 -450 -43 -113 -55 -183 -54 -311 2 -248 97 -451 288 -618 l38
-34 -34 -71 c-18 -40 -37 -76 -41 -81 -10 -12 -108 65 -170 133 -315 351 -351
863 -87 1252 55 82 176 203 258 258 129 88 293 150 446 170 97 12 138 12 232
1z m566 -252 c131 -115 249 -306 296 -476 131 -474 -95 -969 -536 -1179 -145
-69 -261 -95 -423 -95 -121 -1 -271 19 -303 39 -5 3 23 38 62 77 l72 72 67 -8
c131 -17 313 12 438 71 174 81 323 231 405 404 52 111 72 208 72 347 0 183
-42 322 -141 467 -39 56 -144 167 -189 198 l-23 16 41 80 40 80 29 -18 c15
-10 58 -44 93 -75z"/>
</g>
</svg>
